<svg xmlns="http://www.w3.org/2000/svg" height="32" width="32" viewBox="0 0 32 32"><title>Audit</title><desc>Created with Sketch.</desc><g transform="translate(1 4)" fill-rule="evenodd" fill="none"><path id="Shape" fill="#DBE0EC" d="M10.135 16.25h9.73L23.92 26H6.08l4.055-9.75z"/><ellipse rx="15" ry="6.094" cy="10.562" cx="15" fill="#09455B"/><path fill="#fff" d="M23.108 13c-1.343 0-2.432-1.09-2.432-2.437 0-1.347 1.09-2.438 2.432-2.438 1.344 0 2.433 1.09 2.433 2.438 0 1.347-1.087 2.437-2.43 2.437zM15 13c-1.343 0-2.432-1.09-2.432-2.437 0-1.347 1.09-2.438 2.432-2.438s2.432 1.09 2.432 2.438C17.432 11.91 16.342 13 15 13zm-8.108 0c-1.344 0-2.433-1.09-2.433-2.437 0-1.347 1.09-2.438 2.43-2.438s2.433 1.09 2.433 2.438c0 1.347-1.09 2.437-2.43 2.437z"/><path fill="#758CBF" d="M10.135 4.875C10.135 2.183 12.313 0 15 0c2.687 0 4.865 2.183 4.865 4.875h-9.73z"/></g></svg>