<svg xmlns="http://www.w3.org/2000/svg" height="32" width="32" xmlns:xlink="http://www.w3.org/1999/xlink" viewBox="0 0 32 32"><title>Talk</title><desc>Created with Sketch.</desc><defs><linearGradient id="b" x2="50%" x1="50%" y2="100%"><stop stop-color="#96A8CE" offset="0"/><stop stop-color="#BCC8E0" offset="1"/></linearGradient><path id="a" d="M15 24h6l-3 5-3-5z"/></defs><g fill-rule="evenodd" fill="none"><g><g><use xlink:href="#a"/><use xlink:href="#a" fill="url(#b)"/></g><path fill="#A2B2D2" d="M6.152 5.328C4.402 7.078 5 11 5 11h7V4s-4.098-.422-5.848 1.328z"/><path fill="#C6CEE5" d="M12 4h7v7h-7z"/><path fill="#FEFFFE" d="M19 4h7v7h-7z"/><path fill="#98A7CE" d="M5 11h7v7H5z"/><path fill="#758CBF" d="M12 11h7v7h-7z"/><path fill="#DBE0EC" d="M19 11h7v7h-7z"/><path fill="#D2DAE6" d="M5 18s-.42 3.445 1.33 4.977c1.75 1.53 5.67 1.945 5.67 1.945V18H5z"/><path fill="#96A8CE" d="M12 18h7v6.916h-7z"/><path fill="#BCC8E0" d="M19 18v6.997s4.023-.38 5.773-1.91S26 18 26 18h-7z"/></g></g></svg>